<svg width="16" height="17" viewBox="0 0 16 17" fill="none" xmlns="http://www.w3.org/2000/svg">
<path d="M14.6667 1.98477H13.3333V1.45143C13.3333 1.16853 13.221 0.897224 13.0209 0.697185C12.8209 0.497146 12.5496 0.384766 12.2667 0.384766C11.9838 0.384766 11.7125 0.497146 11.5124 0.697185C11.3124 0.897224 11.2 1.16853 11.2 1.45143V1.98477H9.06666V1.45143C9.06666 1.16853 8.95428 0.897224 8.75425 0.697185C8.55421 0.497146 8.2829 0.384766 8 0.384766C7.7171 0.384766 7.44579 0.497146 7.24575 0.697185C7.04571 0.897224 6.93333 1.16853 6.93333 1.45143V1.98477H4.8V1.45143C4.8 1.16853 4.68762 0.897224 4.48758 0.697185C4.28754 0.497146 4.01623 0.384766 3.73333 0.384766C3.45044 0.384766 3.17912 0.497146 2.97909 0.697185C2.77905 0.897224 2.66667 1.16853 2.66667 1.45143V1.98477H1.33333C0.979711 1.98477 0.640573 2.12524 0.390524 2.37529C0.140476 2.62534 0 2.96448 0 3.3181V13.9848C0 14.3384 0.140476 14.6775 0.390524 14.9276C0.640573 15.1776 0.979711 15.3181 1.33333 15.3181H8.8C8.87072 15.3181 8.93855 15.29 8.98856 15.24C9.03857 15.19 9.06666 15.1222 9.06666 15.0514C9.06666 14.9807 9.03857 14.9129 8.98856 14.8629C8.93855 14.8129 8.87072 14.7848 8.8 14.7848H1.33333C1.12135 14.7841 0.918239 14.6996 0.768347 14.5497C0.618455 14.3999 0.533966 14.1967 0.533333 13.9848V5.7181H15.4667V10.2514C15.4667 10.3222 15.4948 10.39 15.5448 10.44C15.5948 10.49 15.6626 10.5181 15.7333 10.5181C15.8041 10.5181 15.8719 10.49 15.9219 10.44C15.9719 10.39 16 10.3222 16 10.2514V3.3181C16 2.96448 15.8595 2.62534 15.6095 2.37529C15.3594 2.12524 15.0203 1.98477 14.6667 1.98477ZM11.7333 1.45143C11.7333 1.30998 11.7895 1.17433 11.8895 1.07431C11.9896 0.974289 12.1252 0.918099 12.2667 0.918099C12.4081 0.918099 12.5438 0.974289 12.6438 1.07431C12.7438 1.17433 12.8 1.30998 12.8 1.45143V3.05143C12.8 3.19288 12.7438 3.32854 12.6438 3.42856C12.5438 3.52857 12.4081 3.58476 12.2667 3.58476C12.1252 3.58476 11.9896 3.52857 11.8895 3.42856C11.7895 3.32854 11.7333 3.19288 11.7333 3.05143V1.45143ZM7.46667 1.45143C7.46667 1.30998 7.52286 1.17433 7.62288 1.07431C7.72289 0.974289 7.85855 0.918099 8 0.918099C8.14145 0.918099 8.2771 0.974289 8.37712 1.07431C8.47714 1.17433 8.53333 1.30998 8.53333 1.45143V3.05143C8.53333 3.19288 8.47714 3.32854 8.37712 3.42856C8.2771 3.52857 8.14145 3.58476 8 3.58476C7.85855 3.58476 7.72289 3.52857 7.62288 3.42856C7.52286 3.32854 7.46667 3.19288 7.46667 3.05143V1.45143ZM3.2 1.45143C3.2 1.30998 3.25619 1.17433 3.35621 1.07431C3.45623 0.974289 3.59188 0.918099 3.73333 0.918099C3.87478 0.918099 4.01044 0.974289 4.11046 1.07431C4.21048 1.17433 4.26667 1.30998 4.26667 1.45143V3.05143C4.26667 3.19288 4.21048 3.32854 4.11046 3.42856C4.01044 3.52857 3.87478 3.58476 3.73333 3.58476C3.59188 3.58476 3.45623 3.52857 3.35621 3.42856C3.25619 3.32854 3.2 3.19288 3.2 3.05143V1.45143ZM15.4667 5.18476H0.533333V3.3181C0.533966 3.10612 0.618455 2.903 0.768347 2.75311C0.918239 2.60322 1.12135 2.51873 1.33333 2.5181H2.66667V3.05143C2.66667 3.33433 2.77905 3.60564 2.97909 3.80568C3.17912 4.00572 3.45044 4.1181 3.73333 4.1181C4.01623 4.1181 4.28754 4.00572 4.48758 3.80568C4.68762 3.60564 4.8 3.33433 4.8 3.05143V2.5181H6.93333V3.05143C6.93333 3.33433 7.04571 3.60564 7.24575 3.80568C7.44579 4.00572 7.7171 4.1181 8 4.1181C8.2829 4.1181 8.55421 4.00572 8.75425 3.80568C8.95428 3.60564 9.06666 3.33433 9.06666 3.05143V2.5181H11.2V3.05143C11.2 3.33433 11.3124 3.60564 11.5124 3.80568C11.7125 4.00572 11.9838 4.1181 12.2667 4.1181C12.5496 4.1181 12.8209 4.00572 13.0209 3.80568C13.221 3.60564 13.3333 3.33433 13.3333 3.05143V2.5181H14.6667C14.8786 2.51873 15.0818 2.60322 15.2317 2.75311C15.3815 2.903 15.466 3.10612 15.4667 3.3181V5.18476Z" fill="#8B94AE"/>
<path d="M7.46671 7.5846C7.46671 7.44315 7.41052 7.3075 7.3105 7.20748C7.21048 7.10746 7.07482 7.05127 6.93337 7.05127H5.86671C5.72526 7.05127 5.5896 7.10746 5.48958 7.20748C5.38956 7.3075 5.33337 7.44315 5.33337 7.5846V8.3846C5.33337 8.52605 5.38956 8.66171 5.48958 8.76173C5.5896 8.86175 5.72526 8.91794 5.86671 8.91794H6.93337C7.07482 8.91794 7.21048 8.86175 7.3105 8.76173C7.41052 8.66171 7.46671 8.52605 7.46671 8.3846V7.5846ZM5.86671 8.3846V7.5846H6.93337V8.3846H5.86671Z" fill="#8B94AE"/>
<path d="M4.26663 7.5846C4.26663 7.44315 4.21044 7.3075 4.11042 7.20748C4.0104 7.10746 3.87475 7.05127 3.7333 7.05127H2.66663C2.52519 7.05127 2.38953 7.10746 2.28951 7.20748C2.18949 7.3075 2.1333 7.44315 2.1333 7.5846V8.3846C2.1333 8.52605 2.18949 8.66171 2.28951 8.76173C2.38953 8.86175 2.52519 8.91794 2.66663 8.91794H3.7333C3.87475 8.91794 4.0104 8.86175 4.11042 8.76173C4.21044 8.66171 4.26663 8.52605 4.26663 8.3846V7.5846ZM2.66663 8.3846V7.5846H3.7333V8.3846H2.66663Z" fill="#8B94AE"/>
<path d="M13.3333 8.91794C13.4747 8.91794 13.6104 8.86175 13.7104 8.76173C13.8104 8.66171 13.8666 8.52605 13.8666 8.3846V7.5846C13.8666 7.44315 13.8104 7.3075 13.7104 7.20748C13.6104 7.10746 13.4747 7.05127 13.3333 7.05127H12.2666C12.1252 7.05127 11.9895 7.10746 11.8895 7.20748C11.7895 7.3075 11.7333 7.44315 11.7333 7.5846V8.3846C11.7333 8.52605 11.7895 8.66171 11.8895 8.76173C11.9895 8.86175 12.1252 8.91794 12.2666 8.91794H13.3333ZM12.2666 7.5846H13.3333V8.3846H12.2666V7.5846Z" fill="#8B94AE"/>
<path d="M7.46671 9.98499C7.46671 9.84354 7.41052 9.70789 7.3105 9.60787C7.21048 9.50785 7.07482 9.45166 6.93337 9.45166H5.86671C5.72526 9.45166 5.5896 9.50785 5.48958 9.60787C5.38956 9.70789 5.33337 9.84354 5.33337 9.98499V10.785C5.33337 10.9264 5.38956 11.0621 5.48958 11.1621C5.5896 11.2621 5.72526 11.3183 5.86671 11.3183H6.93337C7.07482 11.3183 7.21048 11.2621 7.3105 11.1621C7.41052 11.0621 7.46671 10.9264 7.46671 10.785V9.98499ZM5.86671 10.785V9.98499H6.93337V10.785H5.86671Z" fill="#8B94AE"/>
<path d="M4.26663 9.98499C4.26663 9.84354 4.21044 9.70789 4.11042 9.60787C4.0104 9.50785 3.87475 9.45166 3.7333 9.45166H2.66663C2.52519 9.45166 2.38953 9.50785 2.28951 9.60787C2.18949 9.70789 2.1333 9.84354 2.1333 9.98499V10.785C2.1333 10.9264 2.18949 11.0621 2.28951 11.1621C2.38953 11.2621 2.52519 11.3183 2.66663 11.3183H3.7333C3.87475 11.3183 4.0104 11.2621 4.11042 11.1621C4.21044 11.0621 4.26663 10.9264 4.26663 10.785V9.98499ZM2.66663 10.785V9.98499H3.7333V10.785H2.66663Z" fill="#8B94AE"/>
<path d="M6.93337 11.8516H5.86671C5.72526 11.8516 5.5896 11.9078 5.48958 12.0078C5.38956 12.1078 5.33337 12.2434 5.33337 12.3849V13.1849C5.33337 13.3263 5.38956 13.462 5.48958 13.562C5.5896 13.662 5.72526 13.7182 5.86671 13.7182H6.93337C7.07482 13.7182 7.21048 13.662 7.3105 13.562C7.41052 13.462 7.46671 13.3263 7.46671 13.1849V12.3849C7.46671 12.2434 7.41052 12.1078 7.3105 12.0078C7.21048 11.9078 7.07482 11.8516 6.93337 11.8516ZM5.86671 13.1849V12.3849H6.93337V13.1849H5.86671Z" fill="#8B94AE"/>
<path d="M9.06666 8.91794H10.1333C10.2748 8.91794 10.4104 8.86175 10.5104 8.76173C10.6105 8.66171 10.6667 8.52605 10.6667 8.3846V7.5846C10.6667 7.44315 10.6105 7.3075 10.5104 7.20748C10.4104 7.10746 10.2748 7.05127 10.1333 7.05127H9.06666C8.92521 7.05127 8.78955 7.10746 8.68953 7.20748C8.58952 7.3075 8.53333 7.44315 8.53333 7.5846V8.3846C8.53333 8.52605 8.58952 8.66171 8.68953 8.76173C8.78955 8.86175 8.92521 8.91794 9.06666 8.91794ZM9.06666 7.5846H10.1333V8.3846H9.06666V7.5846Z" fill="#8B94AE"/>
<path d="M8.53333 10.785C8.53333 10.9264 8.58952 11.0621 8.68953 11.1621C8.78955 11.2621 8.92521 11.3183 9.06666 11.3183C9.13738 11.3183 9.20521 11.2902 9.25522 11.2402C9.30523 11.1902 9.33333 11.1224 9.33333 11.0517C9.33333 10.9809 9.30523 10.9131 9.25522 10.8631C9.20521 10.8131 9.13738 10.785 9.06666 10.785V9.98499H10.1333C10.204 9.98499 10.2719 9.9569 10.3219 9.90689C10.3719 9.85688 10.4 9.78905 10.4 9.71833C10.4 9.6476 10.3719 9.57977 10.3219 9.52976C10.2719 9.47976 10.204 9.45166 10.1333 9.45166H9.06666C8.92521 9.45166 8.78955 9.50785 8.68953 9.60787C8.58952 9.70789 8.53333 9.84354 8.53333 9.98499V10.785Z" fill="#8B94AE"/>
<path d="M3.7333 11.8516H2.66663C2.52519 11.8516 2.38953 11.9078 2.28951 12.0078C2.18949 12.1078 2.1333 12.2434 2.1333 12.3849V13.1849C2.1333 13.3263 2.18949 13.462 2.28951 13.562C2.38953 13.662 2.52519 13.7182 2.66663 13.7182H3.7333C3.87475 13.7182 4.0104 13.662 4.11042 13.562C4.21044 13.462 4.26663 13.3263 4.26663 13.1849V12.3849C4.26663 12.2434 4.21044 12.1078 4.11042 12.0078C4.0104 11.9078 3.87475 11.8516 3.7333 11.8516ZM2.66663 13.1849V12.3849H3.7333V13.1849H2.66663Z" fill="#8B94AE"/>
<path d="M12.5333 9.45166C11.8477 9.45166 11.1774 9.65498 10.6073 10.0359C10.0373 10.4168 9.59292 10.9582 9.33054 11.5917C9.06815 12.2251 8.9995 12.9222 9.13326 13.5946C9.26702 14.2671 9.59719 14.8848 10.082 15.3696C10.5668 15.8545 11.1845 16.1846 11.857 16.3184C12.5295 16.4521 13.2265 16.3835 13.86 16.1211C14.4934 15.8587 15.0348 15.4144 15.4157 14.8443C15.7967 14.2742 16 13.604 16 12.9183C15.9989 11.9992 15.6333 11.1181 14.9835 10.4682C14.3336 9.8183 13.4524 9.45272 12.5333 9.45166ZM12.5333 15.8517C11.9532 15.8517 11.386 15.6796 10.9036 15.3573C10.4213 15.035 10.0453 14.5769 9.82327 14.0409C9.60126 13.5049 9.54316 12.9151 9.65635 12.3461C9.76953 11.7771 10.0489 11.2544 10.4591 10.8441C10.8694 10.4339 11.392 10.1545 11.9611 10.0414C12.5301 9.92817 13.1199 9.98626 13.6559 10.2083C14.1919 10.4303 14.65 10.8063 14.9723 11.2887C15.2946 11.771 15.4667 12.3382 15.4667 12.9183C15.4657 13.696 15.1564 14.4416 14.6065 14.9915C14.0566 15.5414 13.311 15.8507 12.5333 15.8517Z" fill="#8B94AE"/>
<path d="M14.0741 11.8004L11.9999 13.8746L11.0573 12.9316C11.007 12.8831 10.9396 12.8562 10.8697 12.8568C10.7998 12.8574 10.7329 12.8854 10.6835 12.9349C10.634 12.9843 10.606 13.0512 10.6054 13.1211C10.6047 13.1911 10.6316 13.2584 10.6802 13.3087L11.8114 14.4402C11.8614 14.4902 11.9292 14.5183 11.9999 14.5183C12.0706 14.5183 12.1385 14.4902 12.1885 14.4402L14.4511 12.1775C14.4997 12.1272 14.5266 12.0599 14.526 11.9899C14.5254 11.92 14.4973 11.8531 14.4479 11.8037C14.3984 11.7542 14.3316 11.7262 14.2616 11.7256C14.1917 11.725 14.1244 11.7519 14.0741 11.8004Z" fill="#8B94AE"/>
</svg>
