<svg width="21" height="16" viewBox="0 0 21 16" fill="none" xmlns="http://www.w3.org/2000/svg">
<path d="M4.25416 1.719C4.12722 1.81802 4.00561 1.92461 3.89076 2.03946C3.77063 2.15963 3.77063 2.35437 3.89076 2.47451C3.95085 2.53456 4.0296 2.56458 4.10831 2.56458C4.18702 2.56458 4.26577 2.53456 4.32585 2.47451C4.77235 2.02797 5.33369 1.71987 5.94917 1.58341C6.11503 1.54666 6.2197 1.38239 6.18291 1.21652C6.14616 1.0507 5.98202 0.946027 5.81603 0.982776C5.45189 1.06349 5.10375 1.19491 4.78051 1.37201L3.84782 0.47115C3.72568 0.353107 3.53089 0.356429 3.41289 0.478737C3.29485 0.600922 3.29825 0.795664 3.42048 0.913666L4.25416 1.719Z" fill="#8B94AE"/>
<path d="M6.51279 11.9658C6.28831 12.1903 6.16211 12.4945 6.16773 12.8119C6.17339 13.1292 6.30464 13.4233 6.53732 13.64C6.85683 13.9376 7.31546 14.0146 7.71364 13.8764C7.75371 14.1021 7.86072 14.3181 8.03467 14.4921C8.46135 14.9187 9.1404 14.9426 9.59539 14.5639C9.65367 14.7587 9.76302 14.9354 9.9165 15.0783C10.1379 15.2846 10.4186 15.3868 10.7003 15.3868C11.0023 15.3868 11.3056 15.2694 11.5383 15.0367L15.5544 11.0902C15.6756 10.9711 15.6773 10.7764 15.5583 10.6552C15.4392 10.5341 15.2444 10.5324 15.1232 10.6514L11.1051 14.5997C10.8925 14.8124 10.5474 14.8252 10.3358 14.6282C10.2265 14.5263 10.1647 14.3882 10.1621 14.2393C10.1595 14.0903 10.216 13.9502 10.3214 13.8449C10.3367 13.8296 13.5556 10.6107 13.5556 10.6107C13.6757 10.4905 13.6757 10.2958 13.5556 10.1756C13.4354 10.0556 13.2407 10.0556 13.1205 10.1756L9.23909 14.0571C9.13634 14.1599 8.99976 14.2164 8.85444 14.2164C8.70913 14.2164 8.57255 14.1599 8.4698 14.0571C8.25767 13.845 8.25767 13.4999 8.4698 13.2878C8.47948 13.2781 12.3513 9.40632 12.3513 9.40632C12.4714 9.28614 12.4714 9.0914 12.3513 8.97127C12.2311 8.85117 12.0363 8.85117 11.9162 8.97127L7.72586 13.1614C7.51324 13.3742 7.16809 13.3869 6.95658 13.1898C6.84719 13.0879 6.7855 12.9498 6.78288 12.801C6.78025 12.652 6.83677 12.5119 6.94214 12.4066L10.7535 8.59528C10.8736 8.4751 10.8736 8.28036 10.7535 8.16023C10.6333 8.04013 10.4385 8.04013 10.3184 8.16023C10.3184 8.16023 7.25812 11.2206 7.24779 11.2308C7.0352 11.4435 6.69006 11.4563 6.47854 11.2592C6.36915 11.1573 6.30742 11.0192 6.3048 10.8704C6.30217 10.7214 6.35869 10.5813 6.4641 10.476L10.306 6.63404L11.1654 7.49422C11.4145 7.74392 11.7508 7.88247 12.1007 7.88247C12.1335 7.88247 12.1664 7.88128 12.1993 7.87882C12.5839 7.85015 12.9358 7.65561 13.1649 7.345C13.5495 6.82353 13.4873 6.07804 13.0203 5.61099L11.383 3.97378C12.2084 3.44136 13.2282 3.30527 14.163 3.59652L13.9378 3.8164C13.8162 3.9351 13.8139 4.12988 13.9326 4.25137C13.9929 4.31314 14.0728 4.34411 14.1527 4.34411C14.2302 4.34411 14.3078 4.31499 14.3676 4.25658L15.6601 2.99458L16.2008 3.53528C16.3209 3.65542 16.5157 3.65546 16.6358 3.53532C16.756 3.41519 16.756 3.22041 16.6359 3.10031L15.8712 2.33562C15.8312 2.29563 15.8312 2.23058 15.8712 2.19063L16.3446 1.71727C16.3846 1.6772 16.4497 1.67728 16.4896 1.71727L19.8833 5.11097C19.9233 5.15096 19.9233 5.21601 19.8833 5.25596L19.4099 5.72932C19.3699 5.76931 19.3048 5.76931 19.2649 5.72932L17.6778 4.14219C17.5576 4.02214 17.3629 4.02205 17.2428 4.14219C17.1226 4.26236 17.1226 4.4571 17.2428 4.57724L18.562 5.8965L17.9962 6.45521C17.9505 6.50033 17.9201 6.55861 17.9091 6.62186C17.7334 7.64204 17.2496 8.56415 16.5097 9.28893L16.1743 9.61849C16.0532 9.73756 16.0514 9.93234 16.1705 10.0535C16.2307 10.1148 16.3103 10.1455 16.3899 10.1455C16.4677 10.1455 16.5457 10.1161 16.6055 10.0573L16.9406 9.72808C17.7493 8.93595 18.2862 7.9339 18.4976 6.82468L19.0262 6.30272C19.1243 6.34984 19.2307 6.37417 19.3374 6.37417C19.5212 6.37417 19.705 6.30419 19.845 6.16433L20.3183 5.69097C20.5361 5.47318 20.5836 5.1494 20.4625 4.88449L20.9085 4.44406C21.0294 4.32467 21.0307 4.12992 20.9113 4.00905C20.7919 3.88814 20.5971 3.88699 20.4763 4.0063L20.0599 4.41744L17.1663 1.52388L17.581 1.11902C17.7025 1.00032 17.7049 0.80558 17.5862 0.684051C17.4675 0.56244 17.2727 0.560143 17.1512 0.678842L16.6921 1.12702C16.4318 1.01939 16.1207 1.07099 15.9095 1.28218L15.4362 1.75554C15.2315 1.96025 15.1772 2.25859 15.2719 2.51371L14.6526 3.11832C13.4238 2.62072 12.0263 2.77621 10.9396 3.53028L9.4488 2.03953C8.8905 1.48119 8.18688 1.10762 7.41398 0.959265C7.24705 0.926945 7.08594 1.03654 7.05391 1.20335C7.02187 1.3702 7.13118 1.53143 7.29799 1.56342C7.94956 1.68852 8.54285 2.00356 9.01375 2.47454L12.5852 6.04596C12.8389 6.29968 12.8752 6.7011 12.6697 6.97972C12.5472 7.14583 12.3591 7.24989 12.1535 7.26519C11.9475 7.28077 11.7464 7.20555 11.6007 7.05945L9.01838 4.47462C8.92589 4.38209 8.78505 4.35805 8.66717 4.41494L8.46644 4.51165C7.14968 5.14662 5.57042 4.87862 4.53679 3.84495C4.41665 3.72481 4.22187 3.72477 4.10178 3.84491C3.9816 3.96508 3.9816 4.15982 4.10174 4.27992C5.32018 5.4984 7.18155 5.81426 8.73365 5.06581L8.73755 5.06397L9.87109 6.19862L9.3988 6.67091L8.9877 6.25982C8.86753 6.13972 8.67279 6.13972 8.55265 6.25982C8.43252 6.37999 8.43252 6.57473 8.55265 6.69487L8.96379 7.10596L8.1945 7.87529L7.74358 7.42437C7.62341 7.30427 7.42866 7.30427 7.30853 7.42437C7.1884 7.54454 7.1884 7.73928 7.30853 7.85942L7.75945 8.31034L6.99017 9.07967L6.5392 8.62871C6.41903 8.50861 6.22429 8.50861 6.10415 8.62871C5.98402 8.74888 5.98402 8.94362 6.10415 9.06376L6.55512 9.51472L6.02909 10.0407C5.93689 10.1329 5.86253 10.2377 5.80695 10.3511L3.04493 7.63699C2.30538 6.91262 1.82156 5.99047 1.64585 4.97025C1.63474 4.90606 1.60365 4.847 1.55685 4.80167L0.521906 3.79786C0.399844 3.6797 0.205103 3.68269 0.0868144 3.80463C-0.0314742 3.92661 -0.0285211 4.12135 0.0934589 4.2396L1.05757 5.17467C1.26917 6.28336 1.80602 7.28487 2.61398 8.07627L5.72074 11.1291C5.77275 11.3499 5.88853 11.5505 6.05916 11.7094C6.19131 11.8325 6.34717 11.9179 6.51279 11.9658Z" fill="#8B94AE"/>
</svg>
